# xmcd
#
# Track frame offsets:
#	150
#	20295
#	38956
#	61352
#	77845
#	91661
#	109751
#	131690
#	149033
#	168139
#	187170
#	204238
#	225621
#	235806
#	254090
#	285563
#
# Disc length: 3816 seconds
#
# Revision: 2
# Processed by: cddbd v1.5.1PL2 Copyright (c) Steve Scherf et al.
# Submitted via: audiograbber 1.83.01
#
DISCID=df0ee610
DTITLE=Sound Choice - SC8954
DYEAR=1900
DGENRE=Karaoke
TTITLE0=Evans, Sara - Backseat Of A Greyhound Bus
TTITLE1=Evans, Sara  - Born To Fly (Radio Version)
TTITLE2=Evans, Sara  - Bible Song
TTITLE3=Evans, Sara  - Cheatin'
TTITLE4=Evans, Sara  - Cryin' Game
TTITLE5=Evans, Sara  - Suds In The Bucket
TTITLE6=Evans, Sara  - Tonight (Radio Version)
TTITLE7=Evans, Sara and Warren Brothers - That's The Beat Of A Heart (Radio Versi
TTITLE7=on)
TTITLE8=Evans, Sara  - Saints and Angels
TTITLE9=Evans, Sara  - Real Fine Place To Start, A
TTITLE10=Evans, Sara  - No Place That Far
TTITLE11=Evans, Sara  - Perfect
TTITLE12=Evans, Sara  - Shame About That
TTITLE13=Evans, Sara  - Three Cords And The Truth
TTITLE14=Evans, Sara  - I Could Not Ask For More
TTITLE15=Data - Data Track
EXTD=As Listed In KJ Pro
EXTT0=
EXTT1=
EXTT2=
EXTT3=
EXTT4=
EXTT5=
EXTT6=
EXTT7=
EXTT8=
EXTT9=
EXTT10=
EXTT11=
EXTT12=
EXTT13=
EXTT14=
EXTT15=
PLAYORDER=
